<svg width="153" height="79" viewBox="0 0 153 79" fill="none" xmlns="http://www.w3.org/2000/svg">
<path d="M19.28 23L19.256 12.92L14.312 21.224H12.56L7.64 13.136V23H3.992V6.2H7.208L13.496 16.64L19.688 6.2H22.88L22.928 23H19.28ZM39.4659 10.088L33.6339 23.792C33.0419 25.28 32.3059 26.328 31.4259 26.936C30.5619 27.544 29.5139 27.848 28.2819 27.848C27.6099 27.848 26.9459 27.744 26.2899 27.536C25.6339 27.328 25.0979 27.04 24.6819 26.672L26.0499 24.008C26.3379 24.264 26.6659 24.464 27.0339 24.608C27.4179 24.752 27.7939 24.824 28.1619 24.824C28.6739 24.824 29.0899 24.696 29.4099 24.44C29.7299 24.2 30.0179 23.792 30.2739 23.216L30.3219 23.096L24.7299 10.088H28.5939L32.2179 18.848L35.8659 10.088H39.4659Z" fill="#F9F9F9"/>
<path d="M18.72 33.4C21.76 33.4 24.4 33.912 26.64 34.936C28.88 35.928 30.608 37.368 31.824 39.256C33.04 41.112 33.648 43.304 33.648 45.832C33.648 48.36 33.04 50.552 31.824 52.408C30.608 54.264 28.88 55.704 26.64 56.728C24.4 57.72 21.76 58.216 18.72 58.216H12.864V67H3.36V33.4H18.72ZM18.144 50.728C20.096 50.728 21.568 50.312 22.56 49.48C23.552 48.616 24.048 47.4 24.048 45.832C24.048 44.264 23.552 43.048 22.56 42.184C21.568 41.32 20.096 40.888 18.144 40.888H12.864V50.728H18.144ZM109.68 67L109.584 49.192L100.944 63.688H96.7204L88.1284 49.672V67H79.3444V33.4H87.1684L98.9764 52.792L110.496 33.4H118.32L118.416 67H109.68ZM136.949 67.672C134.229 67.672 131.589 67.336 129.029 66.664C126.469 65.992 124.389 65.096 122.789 63.976L125.909 56.968C127.413 57.96 129.157 58.76 131.141 59.368C133.125 59.976 135.077 60.28 136.997 60.28C140.645 60.28 142.469 59.368 142.469 57.544C142.469 56.584 141.941 55.88 140.885 55.432C139.861 54.952 138.197 54.456 135.893 53.944C133.365 53.4 131.253 52.824 129.557 52.216C127.861 51.576 126.405 50.568 125.189 49.192C123.973 47.816 123.365 45.96 123.365 43.624C123.365 41.576 123.925 39.736 125.045 38.104C126.165 36.44 127.829 35.128 130.037 34.168C132.277 33.208 135.013 32.728 138.245 32.728C140.453 32.728 142.629 32.984 144.773 33.496C146.917 33.976 148.805 34.696 150.437 35.656L147.509 42.712C144.309 40.984 141.205 40.12 138.197 40.12C136.309 40.12 134.933 40.408 134.069 40.984C133.205 41.528 132.773 42.248 132.773 43.144C132.773 44.04 133.285 44.712 134.309 45.16C135.333 45.608 136.981 46.072 139.253 46.552C141.813 47.096 143.925 47.688 145.589 48.328C147.285 48.936 148.741 49.928 149.957 51.304C151.205 52.648 151.829 54.488 151.829 56.824C151.829 58.84 151.269 60.664 150.149 62.296C149.029 63.928 147.349 65.24 145.109 66.232C142.869 67.192 140.149 67.672 136.949 67.672Z" fill="#7FD1B9"/>
<path d="M55.6946 67.672C52.1426 67.672 48.9426 66.92 46.0946 65.416C43.2786 63.912 41.0546 61.832 39.4226 59.176C37.8226 56.52 37.0226 53.528 37.0226 50.2C37.0226 46.872 37.8226 43.88 39.4226 41.224C41.0546 38.568 43.2786 36.488 46.0946 34.984C48.9426 33.48 52.1426 32.728 55.6946 32.728C59.2466 32.728 62.4306 33.48 65.2466 34.984C68.0946 36.488 70.3186 38.568 71.9186 41.224C73.5506 43.88 74.3666 46.872 74.3666 50.2C74.3666 53.528 73.5506 56.52 71.9186 59.176C70.3186 61.832 68.0946 63.912 65.2466 65.416C62.4306 66.92 59.2466 67.672 55.6946 67.672ZM55.6946 59.8C57.3906 59.8 58.9266 59.4 60.3026 58.6C61.6786 57.8 62.7666 56.68 63.5666 55.24C64.3666 53.768 64.7666 52.088 64.7666 50.2C64.7666 48.312 64.3666 46.648 63.5666 45.208C62.7666 43.736 61.6786 42.6 60.3026 41.8C58.9266 41 57.3906 40.6 55.6946 40.6C53.9986 40.6 52.4626 41 51.0866 41.8C49.7106 42.6 48.6226 43.736 47.8226 45.208C47.0226 46.648 46.6226 48.312 46.6226 50.2C46.6226 52.088 47.0226 53.768 47.8226 55.24C48.6226 56.68 49.7106 57.8 51.0866 58.6C52.4626 59.4 53.9986 59.8 55.6946 59.8Z" fill="#353131"/>
<path d="M61.9583 27.875H50.2917V31.7639H61.9583V27.875ZM54.1806 53.1528H58.0694V41.4861H54.1806V53.1528ZM69.7944 40.3L72.5556 37.5389C71.7194 36.5472 70.8056 35.6139 69.8139 34.7972L67.0528 37.5583C64.0389 35.1472 60.2472 33.7083 56.125 33.7083C46.4611 33.7083 38.625 41.5444 38.625 51.2083C38.625 60.8722 46.4417 68.7083 56.125 68.7083C65.8083 68.7083 73.625 60.8722 73.625 51.2083C73.625 47.0861 72.1861 43.2944 69.7944 40.3ZM56.125 64.8194C48.6 64.8194 42.5139 58.7333 42.5139 51.2083C42.5139 43.6833 48.6 37.5972 56.125 37.5972C63.65 37.5972 69.7361 43.6833 69.7361 51.2083C69.7361 58.7333 63.65 64.8194 56.125 64.8194Z" fill="white"/>
</svg>
