<svg width="122" height="79" viewBox="0 0 122 79" fill="none" xmlns="http://www.w3.org/2000/svg">
<path d="M19.4 6.2V23H16.208L7.832 12.8V23H3.992V6.2H7.208L15.56 16.4V6.2H19.4ZM35.7588 16.592C35.7588 16.64 35.7348 16.976 35.6868 17.6H25.9188C26.0948 18.4 26.5108 19.032 27.1668 19.496C27.8228 19.96 28.6388 20.192 29.6148 20.192C30.2868 20.192 30.8788 20.096 31.3908 19.904C31.9188 19.696 32.4068 19.376 32.8548 18.944L34.8468 21.104C33.6308 22.496 31.8548 23.192 29.5188 23.192C28.0628 23.192 26.7748 22.912 25.6548 22.352C24.5348 21.776 23.6708 20.984 23.0628 19.976C22.4548 18.968 22.1508 17.824 22.1508 16.544C22.1508 15.28 22.4468 14.144 23.0388 13.136C23.6468 12.112 24.4708 11.32 25.5108 10.76C26.5668 10.184 27.7428 9.896 29.0388 9.896C30.3028 9.896 31.4468 10.168 32.4708 10.712C33.4948 11.256 34.2948 12.04 34.8708 13.064C35.4628 14.072 35.7588 15.248 35.7588 16.592ZM29.0628 12.728C28.2148 12.728 27.5028 12.968 26.9268 13.448C26.3508 13.928 25.9988 14.584 25.8708 15.416H32.2308C32.1028 14.6 31.7508 13.952 31.1748 13.472C30.5988 12.976 29.8948 12.728 29.0628 12.728ZM58.7531 10.088L54.0731 23H50.4731L47.5691 14.984L44.5691 23H40.9691L36.3131 10.088H39.8411L42.8891 18.824L46.0571 10.088H49.2251L52.2971 18.824L55.4411 10.088H58.7531Z" fill="#F9F9F9"/>
<path d="M18.72 33.4C21.76 33.4 24.4 33.912 26.64 34.936C28.88 35.928 30.608 37.368 31.824 39.256C33.04 41.112 33.648 43.304 33.648 45.832C33.648 48.36 33.04 50.552 31.824 52.408C30.608 54.264 28.88 55.704 26.64 56.728C24.4 57.72 21.76 58.216 18.72 58.216H12.864V67H3.36V33.4H18.72ZM18.144 50.728C20.096 50.728 21.568 50.312 22.56 49.48C23.552 48.616 24.048 47.4 24.048 45.832C24.048 44.264 23.552 43.048 22.56 42.184C21.568 41.32 20.096 40.888 18.144 40.888H12.864V50.728H18.144ZM109.68 67L109.584 49.192L100.944 63.688H96.7204L88.1284 49.672V67H79.3444V33.4H87.1684L98.9764 52.792L110.496 33.4H118.32L118.416 67H109.68Z" fill="#7FD1B9"/>
<path d="M55.6946 67.672C52.1426 67.672 48.9426 66.92 46.0946 65.416C43.2786 63.912 41.0546 61.832 39.4226 59.176C37.8226 56.52 37.0226 53.528 37.0226 50.2C37.0226 46.872 37.8226 43.88 39.4226 41.224C41.0546 38.568 43.2786 36.488 46.0946 34.984C48.9426 33.48 52.1426 32.728 55.6946 32.728C59.2466 32.728 62.4306 33.48 65.2466 34.984C68.0946 36.488 70.3186 38.568 71.9186 41.224C73.5506 43.88 74.3666 46.872 74.3666 50.2C74.3666 53.528 73.5506 56.52 71.9186 59.176C70.3186 61.832 68.0946 63.912 65.2466 65.416C62.4306 66.92 59.2466 67.672 55.6946 67.672ZM55.6946 59.8C57.3906 59.8 58.9266 59.4 60.3026 58.6C61.6786 57.8 62.7666 56.68 63.5666 55.24C64.3666 53.768 64.7666 52.088 64.7666 50.2C64.7666 48.312 64.3666 46.648 63.5666 45.208C62.7666 43.736 61.6786 42.6 60.3026 41.8C58.9266 41 57.3906 40.6 55.6946 40.6C53.9986 40.6 52.4626 41 51.0866 41.8C49.7106 42.6 48.6226 43.736 47.8226 45.208C47.0226 46.648 46.6226 48.312 46.6226 50.2C46.6226 52.088 47.0226 53.768 47.8226 55.24C48.6226 56.68 49.7106 57.8 51.0866 58.6C52.4626 59.4 53.9986 59.8 55.6946 59.8Z" fill="#353131"/>
<path d="M61.9583 27.875H50.2917V31.7639H61.9583V27.875ZM54.1806 53.1528H58.0694V41.4861H54.1806V53.1528ZM69.7944 40.3L72.5556 37.5389C71.7194 36.5472 70.8056 35.6139 69.8139 34.7972L67.0528 37.5583C64.0389 35.1472 60.2472 33.7083 56.125 33.7083C46.4611 33.7083 38.625 41.5444 38.625 51.2083C38.625 60.8722 46.4417 68.7083 56.125 68.7083C65.8083 68.7083 73.625 60.8722 73.625 51.2083C73.625 47.0861 72.1861 43.2944 69.7944 40.3ZM56.125 64.8194C48.6 64.8194 42.5139 58.7333 42.5139 51.2083C42.5139 43.6833 48.6 37.5972 56.125 37.5972C63.65 37.5972 69.7361 43.6833 69.7361 51.2083C69.7361 58.7333 63.65 64.8194 56.125 64.8194Z" fill="white"/>
</svg>
