<svg width="122" height="79" viewBox="0 0 122 79" fill="none" xmlns="http://www.w3.org/2000/svg">
<path d="M11.264 6.2C12.752 6.2 14.04 6.448 15.128 6.944C16.232 7.44 17.08 8.144 17.672 9.056C18.264 9.968 18.56 11.048 18.56 12.296C18.56 13.528 18.264 14.608 17.672 15.536C17.08 16.448 16.232 17.152 15.128 17.648C14.04 18.128 12.752 18.368 11.264 18.368H7.88V23H3.992V6.2H11.264ZM11.048 15.2C12.216 15.2 13.104 14.952 13.712 14.456C14.32 13.944 14.624 13.224 14.624 12.296C14.624 11.352 14.32 10.632 13.712 10.136C13.104 9.624 12.216 9.368 11.048 9.368H7.88V15.2H11.048ZM27.1923 23.192C25.8323 23.192 24.6083 22.912 23.5203 22.352C22.4483 21.776 21.6083 20.984 21.0003 19.976C20.3923 18.968 20.0883 17.824 20.0883 16.544C20.0883 15.264 20.3923 14.12 21.0003 13.112C21.6083 12.104 22.4483 11.32 23.5203 10.76C24.6083 10.184 25.8323 9.896 27.1923 9.896C28.5523 9.896 29.7683 10.184 30.8403 10.76C31.9123 11.32 32.7523 12.104 33.3603 13.112C33.9683 14.12 34.2723 15.264 34.2723 16.544C34.2723 17.824 33.9683 18.968 33.3603 19.976C32.7523 20.984 31.9123 21.776 30.8403 22.352C29.7683 22.912 28.5523 23.192 27.1923 23.192ZM27.1923 20.12C28.1523 20.12 28.9363 19.8 29.5443 19.16C30.1683 18.504 30.4803 17.632 30.4803 16.544C30.4803 15.456 30.1683 14.592 29.5443 13.952C28.9363 13.296 28.1523 12.968 27.1923 12.968C26.2323 12.968 25.4403 13.296 24.8163 13.952C24.1923 14.592 23.8803 15.456 23.8803 16.544C23.8803 17.632 24.1923 18.504 24.8163 19.16C25.4403 19.8 26.2323 20.12 27.1923 20.12ZM53.3109 9.896C54.9269 9.896 56.2069 10.376 57.1509 11.336C58.1109 12.28 58.5909 13.704 58.5909 15.608V23H54.8469V16.184C54.8469 15.16 54.6309 14.4 54.1989 13.904C53.7829 13.392 53.1829 13.136 52.3989 13.136C51.5189 13.136 50.8229 13.424 50.3109 14C49.7989 14.56 49.5429 15.4 49.5429 16.52V23H45.7989V16.184C45.7989 14.152 44.9829 13.136 43.3509 13.136C42.4869 13.136 41.7989 13.424 41.2869 14C40.7749 14.56 40.5189 15.4 40.5189 16.52V23H36.7749V10.088H40.3509V11.576C40.8309 11.032 41.4149 10.616 42.1029 10.328C42.8069 10.04 43.5749 9.896 44.4069 9.896C45.3189 9.896 46.1429 10.08 46.8789 10.448C47.6149 10.8 48.2069 11.32 48.6549 12.008C49.1829 11.336 49.8469 10.816 50.6469 10.448C51.4629 10.08 52.3509 9.896 53.3109 9.896Z" fill="#F9F9F9"/>
<path d="M18.72 33.4C21.76 33.4 24.4 33.912 26.64 34.936C28.88 35.928 30.608 37.368 31.824 39.256C33.04 41.112 33.648 43.304 33.648 45.832C33.648 48.36 33.04 50.552 31.824 52.408C30.608 54.264 28.88 55.704 26.64 56.728C24.4 57.72 21.76 58.216 18.72 58.216H12.864V67H3.36V33.4H18.72ZM18.144 50.728C20.096 50.728 21.568 50.312 22.56 49.48C23.552 48.616 24.048 47.4 24.048 45.832C24.048 44.264 23.552 43.048 22.56 42.184C21.568 41.32 20.096 40.888 18.144 40.888H12.864V50.728H18.144ZM109.68 67L109.584 49.192L100.944 63.688H96.7204L88.1284 49.672V67H79.3444V33.4H87.1684L98.9764 52.792L110.496 33.4H118.32L118.416 67H109.68Z" fill="#7FD1B9"/>
<path d="M55.6946 67.672C52.1426 67.672 48.9426 66.92 46.0946 65.416C43.2786 63.912 41.0546 61.832 39.4226 59.176C37.8226 56.52 37.0226 53.528 37.0226 50.2C37.0226 46.872 37.8226 43.88 39.4226 41.224C41.0546 38.568 43.2786 36.488 46.0946 34.984C48.9426 33.48 52.1426 32.728 55.6946 32.728C59.2466 32.728 62.4306 33.48 65.2466 34.984C68.0946 36.488 70.3186 38.568 71.9186 41.224C73.5506 43.88 74.3666 46.872 74.3666 50.2C74.3666 53.528 73.5506 56.52 71.9186 59.176C70.3186 61.832 68.0946 63.912 65.2466 65.416C62.4306 66.92 59.2466 67.672 55.6946 67.672ZM55.6946 59.8C57.3906 59.8 58.9266 59.4 60.3026 58.6C61.6786 57.8 62.7666 56.68 63.5666 55.24C64.3666 53.768 64.7666 52.088 64.7666 50.2C64.7666 48.312 64.3666 46.648 63.5666 45.208C62.7666 43.736 61.6786 42.6 60.3026 41.8C58.9266 41 57.3906 40.6 55.6946 40.6C53.9986 40.6 52.4626 41 51.0866 41.8C49.7106 42.6 48.6226 43.736 47.8226 45.208C47.0226 46.648 46.6226 48.312 46.6226 50.2C46.6226 52.088 47.0226 53.768 47.8226 55.24C48.6226 56.68 49.7106 57.8 51.0866 58.6C52.4626 59.4 53.9986 59.8 55.6946 59.8Z" fill="#353131"/>
<path d="M61.9583 27.875H50.2917V31.7639H61.9583V27.875ZM54.1806 53.1528H58.0694V41.4861H54.1806V53.1528ZM69.7944 40.3L72.5556 37.5389C71.7194 36.5472 70.8056 35.6139 69.8139 34.7972L67.0528 37.5583C64.0389 35.1472 60.2472 33.7083 56.125 33.7083C46.4611 33.7083 38.625 41.5444 38.625 51.2083C38.625 60.8722 46.4417 68.7083 56.125 68.7083C65.8083 68.7083 73.625 60.8722 73.625 51.2083C73.625 47.0861 72.1861 43.2944 69.7944 40.3ZM56.125 64.8194C48.6 64.8194 42.5139 58.7333 42.5139 51.2083C42.5139 43.6833 48.6 37.5972 56.125 37.5972C63.65 37.5972 69.7361 43.6833 69.7361 51.2083C69.7361 58.7333 63.65 64.8194 56.125 64.8194Z" fill="white"/>
</svg>
